<svg xmlns="http://www.w3.org/2000/svg" xmlns:xlink="http://www.w3.org/1999/xlink" viewBox="0 0 272.65 47.89"><defs><style>.cls-1{isolation:isolate;}.cls-2,.cls-8{fill:#fff;}.cls-3{fill:#fd0;}.cls-4,.cls-5,.cls-6,.cls-9{mix-blend-mode:multiply;}.cls-4{fill:url(#Degradado_sin_nombre_661);}.cls-5{fill:url(#Degradado_sin_nombre_694);}.cls-6{opacity:0.4;}.cls-7{fill:#f18a00;}.cls-8,.cls-9{fill-rule:evenodd;}.cls-9{fill:url(#Degradado_sin_nombre_686);}.cls-10{mix-blend-mode:lighten;fill:url(#Degradado_sin_nombre_751);}</style><linearGradient id="Degradado_sin_nombre_661" x1="36.15" y1="40.9" x2="15.68" y2="12.93" gradientUnits="userSpaceOnUse"><stop offset="0.14" stop-color="#f18a00"/><stop offset="0.28" stop-color="#f18a00" stop-opacity="0.92"/><stop offset="0.45" stop-color="#f18a00" stop-opacity="0.8"/><stop offset="0.51" stop-color="#f18a00" stop-opacity="0.75"/><stop offset="0.64" stop-color="#f18a00" stop-opacity="0.61"/><stop offset="0.8" stop-color="#f18a00" stop-opacity="0.4"/><stop offset="1" stop-color="#f18a00" stop-opacity="0.1"/></linearGradient><linearGradient id="Degradado_sin_nombre_694" x1="36.15" y1="40.9" x2="15.68" y2="12.93" gradientUnits="userSpaceOnUse"><stop offset="0" stop-color="#181b1c" stop-opacity="0.23"/><stop offset="0.43" stop-color="#181b1c" stop-opacity="0.02"/><stop offset="0.45" stop-color="#181b1c" stop-opacity="0"/><stop offset="1" stop-color="#181b1c" stop-opacity="0"/></linearGradient><linearGradient id="Degradado_sin_nombre_686" x1="23.85" y1="24.3" x2="32.83" y2="24.54" gradientUnits="userSpaceOnUse"><stop offset="0" stop-color="#f18a00" stop-opacity="0.5"/><stop offset="0.1" stop-color="#f18a00" stop-opacity="0.45"/><stop offset="0.27" stop-color="#f18a00" stop-opacity="0.32"/><stop offset="0.5" stop-color="#f18a00" stop-opacity="0.12"/><stop offset="0.62" stop-color="#f18a00" stop-opacity="0"/></linearGradient><linearGradient id="Degradado_sin_nombre_751" x1="17.68" y1="3.75" x2="23.73" y2="20.38" gradientUnits="userSpaceOnUse"><stop offset="0" stop-color="#fefefe" stop-opacity="0.4"/><stop offset="0" stop-color="#fefefe" stop-opacity="0.4"/><stop offset="0.4" stop-color="#fefefe" stop-opacity="0.29"/><stop offset="0.74" stop-color="#fefefe" stop-opacity="0.22"/><stop offset="1" stop-color="#fefefe" stop-opacity="0.2"/></linearGradient></defs><title>Logocolor</title><g class="cls-1"><g id="Capa_1" data-name="Capa 1"><path class="cls-2" d="M208.32,29l.61-1.68c1.06-2.89,2.12-5.79,3.17-8.68a.33.33,0,0,1,.36-.26h3.83c0,.08,0,.14-.06.2l-6,14.78a.28.28,0,0,1-.31.21h-3.21a.28.28,0,0,1-.31-.21q-3-7.38-6-14.75a1.6,1.6,0,0,0-.08-.23h3.84a.35.35,0,0,1,.4.28l3.66,10.11.09.22ZM245,33.56h3.93v-.31q0-3.66,0-7.3a8,8,0,0,1,.09-1.29,3.74,3.74,0,0,1,3.87-3.36c.55,0,1.1.1,1.69.16l.37-3.13c-2.61-.5-4.83-.08-6.34,2.38-.16-.75-.3-1.44-.46-2.13,0-.07-.12-.19-.18-.19-1,0-2,0-3,0Zm-11.46,0h3.93v-.31c0-2.44,0-4.87,0-7.3a8,8,0,0,1,.09-1.29,3.74,3.74,0,0,1,3.88-3.36c.55,0,1.1.1,1.68.16l.37-3.13c-2.6-.5-4.83-.08-6.33,2.38l-.46-2.13c0-.07-.12-.19-.19-.19-1,0-2,0-3,0Zm-132.69-.35V25.48c0-.23,0-.47,0-.7a3.66,3.66,0,0,1,3.33-3.51,3.09,3.09,0,0,1,3.44,2.28,5.36,5.36,0,0,1,.11,1.2c0,2.83,0,5.65,0,8.48v.33h4v-.32c0-3.1,0-6.19,0-9.29a6.85,6.85,0,0,0-.07-1.1,5.3,5.3,0,0,0-3.07-4.23,6.44,6.44,0,0,0-3.72-.55,6,6,0,0,0-3.6,1.71c-.23.24-.7.78-.7.78l-.22-2.13-3.42,0V33.56h3.94Zm6.44-21.06,2.34.7a3.27,3.27,0,0,1-4.39,2.87c-.55-.18-1.08-.43-1.62-.65a3.65,3.65,0,0,0-.64-.2,1.08,1.08,0,0,0-1.26.63l-.18.41-2.34-.66a3.28,3.28,0,0,1,4.36-2.92c.53.17,1.05.42,1.57.63l.12,0c1,.43,1.51.24,2-.76A.64.64,0,0,1,107.3,12.15Zm43.27,21.41h3.93V18.4h-3.93Zm2-16.64a2.27,2.27,0,0,1-2.35-2.45,2.37,2.37,0,1,1,4.74.24A2.28,2.28,0,0,1,152.53,16.92Zm-26.13,16a11.57,11.57,0,0,1-1.5.52,12.3,12.3,0,0,1-3.66.5A8.9,8.9,0,0,1,117,32.85a7.17,7.17,0,0,1-3.6-4.83,8.62,8.62,0,0,1,1-6.54,6.83,6.83,0,0,1,3.42-2.87,8.17,8.17,0,0,1,5.78-.16,6.57,6.57,0,0,1,3.82,3.4,9,9,0,0,1,.81,5.11H117.12a4.33,4.33,0,0,0,1,2.39A4.66,4.66,0,0,0,121.57,31a8.22,8.22,0,0,0,3.73-.77Zm-9.25-8.35h7.26A3.48,3.48,0,0,0,121,20.94,3.77,3.77,0,0,0,117.15,24.57ZM232,33.73a6.91,6.91,0,0,1-3.41,0,3.05,3.05,0,0,1-1.83-1.6c0-.07-.07-.13-.11-.21-.29.23-.56.48-.86.69a6.79,6.79,0,0,1-6.66.84,4.65,4.65,0,0,1-2.22-6.8,4.82,4.82,0,0,1,2.59-1.95,9.82,9.82,0,0,1,3.22-.56,14.15,14.15,0,0,1,3.31.27.57.57,0,0,0,.13,0,2.75,2.75,0,0,0-2.7-3.43,10.75,10.75,0,0,0-4.25.64l-1.1-2.7c.31-.1.62-.2.94-.28a15.33,15.33,0,0,1,5-.61,6.35,6.35,0,0,1,4.32,1.8,4.8,4.8,0,0,1,1.49,3.3c.06,2.16,0,4.31.05,6.47,0,.13,0,.26,0,.4a1,1,0,0,0,1,.94c.27,0,.55,0,.84,0Zm-5.82-6.89c0-.06-.1-.14-.17-.15-.74-.12-3.45-.71-5,.44a2.12,2.12,0,0,0-.16,3.4,3,3,0,0,0,2.2.62,3.19,3.19,0,0,0,2.9-2A5.29,5.29,0,0,0,226.21,26.84Zm-25.69,6.89a7,7,0,0,1-3.42,0,3,3,0,0,1-1.82-1.6l-.11-.21c-.29.23-.56.48-.86.69a6.81,6.81,0,0,1-6.67.84,4.65,4.65,0,0,1-2.22-6.8A4.85,4.85,0,0,1,188,24.7a9.72,9.72,0,0,1,3.21-.56,14.23,14.23,0,0,1,3.32.27.56.56,0,0,0,.13,0A2.76,2.76,0,0,0,192,21a10.78,10.78,0,0,0-4.25.64l-1.1-2.7c.32-.1.63-.2.94-.28a15.39,15.39,0,0,1,5-.61,6.37,6.37,0,0,1,4.32,1.8,4.8,4.8,0,0,1,1.49,3.3c.06,2.16,0,4.31,0,6.47,0,.13,0,.26,0,.4a.94.94,0,0,0,1,.94c.28,0,.55,0,.84,0Zm-5.82-6.89c0-.06-.11-.14-.18-.15-.74-.12-3.44-.71-5.05.44a2.12,2.12,0,0,0-.15,3.4,3,3,0,0,0,2.19.62,3.2,3.2,0,0,0,2.91-2A5.29,5.29,0,0,0,194.7,26.84ZM79.18,18.47q0,4.7,0,9.4a6.47,6.47,0,0,0,.16,1.46A5.21,5.21,0,0,0,82.12,33a6.5,6.5,0,0,0,3.6.67,5.88,5.88,0,0,0,4.44-2.29,2.91,2.91,0,0,1,.2-.23l.5,2.17H94V18.19H90.05v8.23a6.4,6.4,0,0,1-.11,1.15,3.55,3.55,0,0,1-4.24,2.86,3,3,0,0,1-2.54-3.1c0-2.94,0-5.87,0-8.81v-.33h-4C79.19,18.29,79.18,18.38,79.18,18.47Zm5.22-1.62c-.33-.72-.65-1.4-1-2.09a1.05,1.05,0,0,1-.08-.18l6-2.75,1.22,2.65ZM72.31,12.08V27.74l-.14-.18-3.06-4.21L61,12.22a.3.3,0,0,0-.28-.16h-4V33.57h3.93V17.91a.76.76,0,0,1,.13.16l1.64,2.24Q67.25,26.88,72,33.44a.3.3,0,0,0,.27.14h3.95V12.08Zm106.51,0V27.74l-.14-.18-3.06-4.21L167.5,12.22a.3.3,0,0,0-.28-.16h-3.95V33.57h3.94V17.91a1.1,1.1,0,0,1,.12.16L169,20.31q4.78,6.57,9.56,13.13a.3.3,0,0,0,.27.14h3.95V12.08ZM133.73,30.57l.17-.23,6-7.8.11-.13a6.33,6.33,0,0,0,1.42-4H129.77v3h6.52l-.19.26-6.21,8h0a6.17,6.17,0,0,0-1.3,3.68v.18h13.12v-3Zm137.71-4.66V26A8.21,8.21,0,0,1,255,26V26a8,8,0,0,1,8.24-8A7.92,7.92,0,0,1,271.44,25.91Zm-4,.07c0-2.63-1.71-4.93-4.24-4.93s-4.18,2.23-4.18,4.86V26c0,2.63,1.71,4.93,4.24,4.93s4.18-2.23,4.18-4.86Z"/><path class="cls-3" d="M23.74,46A22.09,22.09,0,1,1,45.83,23.94,22.11,22.11,0,0,1,23.74,46Z"/><path class="cls-4" d="M23.74,46A22.09,22.09,0,1,1,45.83,23.94,22.11,22.11,0,0,1,23.74,46Z"/><path class="cls-5" d="M23.74,46A22.09,22.09,0,1,1,45.83,23.94,22.11,22.11,0,0,1,23.74,46Z"/><path class="cls-3" d="M23.74,2.3A21.65,21.65,0,1,1,2.1,23.94,21.67,21.67,0,0,1,23.74,2.3m0-.88A22.53,22.53,0,1,0,46.27,23.94,22.53,22.53,0,0,0,23.74,1.42Z"/><g class="cls-6"><path class="cls-7" d="M23.74,2.3A21.65,21.65,0,1,1,2.1,23.94,21.67,21.67,0,0,1,23.74,2.3m0-.88A22.53,22.53,0,1,0,46.27,23.94,22.53,22.53,0,0,0,23.74,1.42Z"/></g><polygon class="cls-8" points="26.23 24.73 26.23 33.03 21.23 33.03 21.23 15.83 26.23 15.83 31.87 24.73 31.87 15.83 36.84 15.83 36.84 33.03 31.92 33.03 26.23 24.73"/><polygon class="cls-9" points="26.19 24.73 26.19 15.84 29.55 26 31.88 33.04 26.19 24.73"/><polygon class="cls-8" points="15.56 24.73 15.56 33.03 10.55 33.03 10.55 15.83 15.56 15.83 21.19 24.73 21.19 15.83 26.16 15.83 26.16 33.03 21.24 33.03 15.56 24.73"/><path class="cls-10" d="M18.06,3.05C32.3-.83,41.28,10.32,42.53,13.25A64.55,64.55,0,0,1,29.39,19c-9.89,3-19.8,3.31-27,1.49A21.84,21.84,0,0,1,18.06,3.05Z"/></g></g></svg>